<?xml version="1.0" standalone="no"?>
<svg xmlns:mydata="http://www.w3.org/2000/svg" mydata:contrastcolor="000000" mydata:template="Contrast" mydata:presentation="2.5" mydata:layouttype="undefined" mydata:specialfontid="undefined" mydata:id1="190" mydata:id2="189" mydata:companyname="&lt;/T4&gt;" mydata:companytagline="Tom4te" version="1.1" xmlns="http://www.w3.org/2000/svg" xmlns:xlink="http://www.w3.org/1999/xlink" viewBox="0 45 550 380"><g fill="#000000" fill-rule="nonzero" stroke="none" stroke-width="1" stroke-linecap="butt" stroke-linejoin="miter" stroke-miterlimit="10" stroke-dasharray="" stroke-dashoffset="0" font-family="none" font-weight="none" font-size="none" text-anchor="none" style="mix-blend-mode: normal"><g data-paper-data="{&quot;isGlobalGroup&quot;:true,&quot;bounds&quot;:{&quot;x&quot;:104.83191817830954,&quot;y&quot;:157.92650540966758,&quot;width&quot;:340.3361636433809,&quot;height&quot;:154.14698918066483}}"><g data-paper-data="{&quot;isPrimaryText&quot;:true}"><path d="M104.83192,221.50146v-21.14787l67.44987,-25.67955v14.97427l-54.70861,21.3449l54.70861,21.27922v14.90859z" data-paper-data="{&quot;glyphName&quot;:&quot;&lt;&quot;,&quot;glyphIndex&quot;:0,&quot;firstGlyphOfWord&quot;:true,&quot;word&quot;:1}" fill="#82e569"/><path d="M179.04648,258.08333l19.11189,-100.15682h15.63103l-18.78351,100.15682z" data-paper-data="{&quot;glyphName&quot;:&quot;/&quot;,&quot;glyphIndex&quot;:1,&quot;word&quot;:1}" fill="#82e569"/><path d="M265.87095,177.82652v77.56407h-19.3746v-77.56407h-29.88285v-14.97427h79.20598v14.97427z" data-paper-data="{&quot;glyphName&quot;:&quot;T&quot;,&quot;glyphIndex&quot;:2,&quot;word&quot;:1}" fill="#82e569"/><path d="M359.00038,236.5414v18.84919h-17.60133v-18.84919h-42.0987v-13.85776l39.07758,-59.83139h20.62245v59.96274h12.3472v13.72641zM341.39905,192.53808c0,-2.36436 0.07662,-4.92575 0.22987,-7.68416c0.15325,-2.75842 0.27365,-4.53169 0.36122,-5.3198c-1.13839,2.45193 -3.19626,5.99846 -6.1736,10.63961l-21.47625,32.64127h27.05876z" data-paper-data="{&quot;glyphName&quot;:&quot;4&quot;,&quot;glyphIndex&quot;:3,&quot;word&quot;:1}" fill="#82e569"/><path d="M377.71821,247.18101v-14.90859l54.64293,-21.27922l-54.64293,-21.3449v-14.97427l67.44987,25.67955v21.14787z" data-paper-data="{&quot;glyphName&quot;:&quot;&gt;&quot;,&quot;glyphIndex&quot;:4,&quot;lastGlyphOfWord&quot;:true,&quot;word&quot;:1}" fill="#82e569"/></g></g></g></svg>