<?xml version="1.0" standalone="no"?>
<svg xmlns:mydata="http://www.w3.org/2000/svg" mydata:contrastcolor="000000" mydata:template="Contrast" mydata:presentation="2.5" mydata:layouttype="undefined" mydata:specialfontid="undefined" mydata:id1="190" mydata:id2="189" mydata:companyname="&lt;/T4&gt;" mydata:companytagline="Tom4te" version="1.1" xmlns="http://www.w3.org/2000/svg" xmlns:xlink="http://www.w3.org/1999/xlink" style="height: 531px;" viewBox="0 0 550 470"><g fill="#000000" fill-rule="nonzero" stroke="none" stroke-width="1" stroke-linecap="butt" stroke-linejoin="miter" stroke-miterlimit="10" stroke-dasharray="" stroke-dashoffset="0" font-family="none" font-weight="none" font-size="none" text-anchor="none" style="mix-blend-mode: normal"><g data-paper-data="{&quot;isGlobalGroup&quot;:true,&quot;bounds&quot;:{&quot;x&quot;:104.83191817830956,&quot;y&quot;:160.79837732125026,&quot;width&quot;:340.3361636433809,&quot;height&quot;:148.40324535749954}}"><g data-paper-data="{&quot;isSecondaryText&quot;:true}" id="element-id-61305"><path d="M132.8184,283.98857v24.81693h-3.76314v-24.81693h-9.58611v-3.08974h22.93536v3.08974z" data-paper-data="{&quot;glyphName&quot;:&quot;T&quot;,&quot;glyphIndex&quot;:0,&quot;firstGlyphOfWord&quot;:true,&quot;word&quot;:1}" fill="#82e569" id="element-id-63432"/><path d="M202.95471,294.72343c0,2.91809 -0.55787,5.47306 -1.67361,7.66493c-1.11574,2.19187 -2.71672,3.87538 -4.80296,5.05053c-2.08623,1.17516 -4.54878,1.76274 -7.38764,1.76274c-2.86527,0 -5.33772,-0.58098 -7.41735,-1.74293c-2.07963,-1.16195 -3.66741,-2.84216 -4.76335,-5.04063c-1.09593,-2.19847 -1.6439,-4.76335 -1.6439,-7.69464c0,-4.46295 1.22137,-7.95211 3.66411,-10.46748c2.44274,-2.51536 5.84277,-3.77305 10.2001,-3.77305c2.83886,0 5.30141,0.56447 7.38764,1.69341c2.08623,1.12894 3.68062,2.76954 4.78315,4.92179c1.10253,2.15225 1.6538,4.69403 1.6538,7.62532zM199.09253,294.72343c0,-3.47265 -0.86816,-6.19928 -2.60449,-8.17988c-1.73633,-1.9806 -4.18897,-2.9709 -7.35793,-2.9709c-3.19537,0 -5.66452,0.9771 -7.40745,2.93129c-1.74293,1.95419 -2.61439,4.69403 -2.61439,8.2195c0,3.49906 0.88137,6.27521 2.6441,8.32843c1.76274,2.05322 4.20878,3.07984 7.33813,3.07984c3.22178,0 5.69423,-0.9936 7.41735,-2.9808c1.72312,-1.9872 2.58468,-4.79636 2.58468,-8.42746z" data-paper-data="{&quot;glyphName&quot;:&quot;O&quot;,&quot;glyphIndex&quot;:1,&quot;word&quot;:1}" fill="#82e569" id="element-id-64526"/><path d="M264.61892,308.8055v-18.61765c0,-2.05983 0.05942,-4.04043 0.17825,-5.9418c-0.647,2.36352 -1.22797,4.21208 -1.74293,5.54568l-7.20939,19.01377h-2.65401l-7.30842,-19.01377l-1.10914,-3.36702l-0.6536,-2.17866l0.05942,2.19847l0.07922,3.74334v18.61765h-3.36702v-27.90667h4.97131l7.42725,19.35047c0.26408,0.77904 0.51826,1.61419 0.76253,2.50546c0.24427,0.89127 0.40602,1.53497 0.48525,1.93109c0.10563,-0.52816 0.3268,-1.3303 0.6635,-2.40643c0.3367,-1.07613 0.56447,-1.75283 0.68331,-2.03012l7.28861,-19.35047h4.85247v27.90667z" data-paper-data="{&quot;glyphName&quot;:&quot;M&quot;,&quot;glyphIndex&quot;:2,&quot;word&quot;:1}" fill="#82e569" id="element-id-55154"/><path d="M318.74141,302.48738v6.31812h-3.36702v-6.31812h-13.15119v-2.77284l12.77488,-18.81571h3.74334v18.7761h3.92159v2.81245zM315.37439,284.91945c-0.02641,0.07922 -0.21126,0.42913 -0.55457,1.04972c-0.3433,0.62059 -0.60078,1.05632 -0.77243,1.3072l-7.14997,10.5368l-1.06952,1.46564l-0.3169,0.39612h9.86339z" data-paper-data="{&quot;glyphName&quot;:&quot;4&quot;,&quot;glyphIndex&quot;:3,&quot;word&quot;:1}" fill="#82e569" id="element-id-25772"/><path d="M365.54376,283.98857v24.81693h-3.76314v-24.81693h-9.58611v-3.08974h22.93536v3.08974z" data-paper-data="{&quot;glyphName&quot;:&quot;T&quot;,&quot;glyphIndex&quot;:4,&quot;word&quot;:1}" fill="#82e569" id="element-id-6078"/><path d="M408.54618,308.8055v-27.90667h21.17263v3.08974h-17.38968v8.95232h16.20132v3.05013h-16.20132v9.72475h18.20173v3.08974z" data-paper-data="{&quot;glyphName&quot;:&quot;E&quot;,&quot;glyphIndex&quot;:5,&quot;lastGlyphOfWord&quot;:true,&quot;word&quot;:1}" fill="#82e569" id="element-id-79727"/></g><g data-paper-data="{&quot;isPrimaryText&quot;:true}" id="element-id-26546"><path d="M104.83192,224.37333v-21.14787l67.44987,-25.67955v14.97427l-54.70861,21.3449l54.70861,21.27922v14.90859z" data-paper-data="{&quot;glyphName&quot;:&quot;&lt;&quot;,&quot;glyphIndex&quot;:0,&quot;firstGlyphOfWord&quot;:true,&quot;word&quot;:1}" fill="#82e569" id="element-id-72884"/><path d="M179.04648,260.9552l19.11189,-100.15682h15.63103l-18.78351,100.15682z" data-paper-data="{&quot;glyphName&quot;:&quot;/&quot;,&quot;glyphIndex&quot;:1,&quot;word&quot;:1}" fill="#82e569" id="element-id-60475"/><path d="M265.87095,180.69839v77.56407h-19.3746v-77.56407h-29.88285v-14.97427h79.20598v14.97427z" data-paper-data="{&quot;glyphName&quot;:&quot;T&quot;,&quot;glyphIndex&quot;:2,&quot;word&quot;:1}" fill="#82e569" id="element-id-76204"/><path d="M359.00038,239.41327v18.84919h-17.60133v-18.84919h-42.0987v-13.85776l39.07758,-59.83139h20.62245v59.96274h12.3472v13.72641zM341.39905,195.40995c0,-2.36436 0.07662,-4.92575 0.22987,-7.68416c0.15325,-2.75842 0.27365,-4.53169 0.36122,-5.3198c-1.13839,2.45193 -3.19626,5.99846 -6.1736,10.63961l-21.47625,32.64127h27.05876z" data-paper-data="{&quot;glyphName&quot;:&quot;4&quot;,&quot;glyphIndex&quot;:3,&quot;word&quot;:1}" fill="#82e569" id="element-id-49668"/><path d="M377.71821,250.05288v-14.90859l54.64293,-21.27922l-54.64293,-21.3449v-14.97427l67.44987,25.67955v21.14787z" data-paper-data="{&quot;glyphName&quot;:&quot;&gt;&quot;,&quot;glyphIndex&quot;:4,&quot;lastGlyphOfWord&quot;:true,&quot;word&quot;:1}" fill="#82e569" id="element-id-49426"/></g></g></g><rect data-element-id="element-id-61305" stroke-width="2" fill="transparent" class="invisible-element-box grouping-element" x="119" y="280" width="311" height="29" data-element-name="isSecondaryText"/><rect data-element-id="element-id-76204" stroke-width="2" fill="transparent" class="invisible-element-box individual-element" x="217" y="166" width="79" height="93"/><rect data-element-id="element-id-49668" stroke-width="2" fill="transparent" class="invisible-element-box individual-element" x="299" y="166" width="72" height="93"/><rect data-element-id="element-id-72884" stroke-width="2" fill="transparent" class="invisible-element-box individual-element" x="105" y="178" width="67" height="73"/><rect data-element-id="element-id-49426" stroke-width="2" fill="transparent" class="invisible-element-box individual-element" x="378" y="178" width="67" height="73"/><rect data-element-id="element-id-60475" stroke-width="2" fill="transparent" class="invisible-element-box individual-element" x="179" y="161" width="35" height="100"/><rect data-element-id="element-id-64526" stroke-width="2" fill="transparent" class="invisible-element-box individual-element" x="175" y="280" width="28" height="29"/><rect data-element-id="element-id-55154" stroke-width="2" fill="transparent" class="invisible-element-box individual-element" x="241" y="281" width="27" height="28"/><rect data-element-id="element-id-63432" stroke-width="2" fill="transparent" class="invisible-element-box individual-element" x="119" y="281" width="23" height="28"/><rect data-element-id="element-id-6078" stroke-width="2" fill="transparent" class="invisible-element-box individual-element" x="352" y="281" width="23" height="28"/><rect data-element-id="element-id-79727" stroke-width="2" fill="transparent" class="invisible-element-box individual-element" x="409" y="281" width="22" height="28"/><rect data-element-id="element-id-25772" stroke-width="2" fill="transparent" class="invisible-element-box individual-element" x="302" y="281" width="20" height="28"/></svg>